HIERARCHY
ROOT hip
{
  OFFSET 0 0 0
  CHANNELS 6 Xposition Yposition Zposition Zrotation Yrotation Xrotation
  JOINT abdomen
  {
    OFFSET 0 20.6881 -0.73152
    CHANNELS 3 Zrotation Xrotation Yrotation
    JOINT chest
    {
      OFFSET 0 11.7043 -0.48768
      CHANNELS 3 Zrotation Xrotation Yrotation
      JOINT neck
      {
        OFFSET 0 22.1894 -2.19456
        CHANNELS 3 Zrotation Xrotation Yrotation
        JOINT head
        {
          OFFSET -0.24384 7.07133 1.2192
          CHANNELS 3 Zrotation Xrotation Yrotation
          JOINT leftEye
          {
            OFFSET 4.14528 8.04674 8.04672
            CHANNELS 3 Zrotation Xrotation Yrotation
            End Site
            {
              OFFSET 1 0 0
            }
          }
          JOINT rightEye
          {
            OFFSET -3.6576 8.04674 8.04672
            CHANNELS 3 Zrotation Xrotation Yrotation
            End Site
            {
              OFFSET 1 0 0
            }
          }
        }
      }
      JOINT rCollar
      {
        OFFSET -2.68224 19.2634 -4.8768
        CHANNELS 3 Zrotation Xrotation Yrotation
        JOINT rShldr
        {
          OFFSET -8.77824 -1.95073 1.46304
          CHANNELS 3 Zrotation Xrotation Yrotation
          JOINT rForeArm
          {
            OFFSET -28.1742 -1.7115 0.48768
            CHANNELS 3 Zrotation Xrotation Yrotation
            JOINT rHand
            {
              OFFSET -22.5879 0.773209 7.07136
              CHANNELS 3 Zrotation Xrotation Yrotation
              JOINT rThumb1
              {
                OFFSET -1.2192 -0.487915 3.41376
                CHANNELS 3 Zrotation Xrotation Yrotation
                JOINT rThumb2
                {
                  OFFSET -3.37035 -0.52449 3.41376
                  CHANNELS 3 Zrotation Xrotation Yrotation
                  End Site
                  {
                    OFFSET -1.78271 -1.18214 1.43049
                  }
                }
              }
              JOINT rIndex1
              {
                OFFSET -7.75947 0.938293 5.60832
                CHANNELS 3 Zrotation Xrotation Yrotation
                JOINT rIndex2
                {
                  OFFSET -2.54057 -0.884171 1.56538
                  CHANNELS 3 Zrotation Xrotation Yrotation
                  End Site
                  {
                    OFFSET -1.62519 -0.234802 1.16502
                  }
                }
              }
              JOINT rMid1
              {
                OFFSET -8.24714 1.18213 3.41376
                CHANNELS 3 Zrotation Xrotation Yrotation
                JOINT rMid2
                {
                  OFFSET -3.10165 -0.590103 1.0647
                  CHANNELS 3 Zrotation Xrotation Yrotation
                  End Site
                  {
                    OFFSET -2.48547 -0.328903 0.83742
                  }
                }
              }
              JOINT rRing1
              {
                OFFSET -8.82822 0.546677 1.51678
                CHANNELS 3 Zrotation Xrotation Yrotation
                JOINT rRing2
                {
                  OFFSET -2.60934 -0.819778 -0.0198488
                  CHANNELS 3 Zrotation Xrotation Yrotation
                  End Site
                  {
                    OFFSET -2.33842 -0.294052 0.168128
                  }
                }
              }
              JOINT rPinky1
              {
                OFFSET -8.27202 -0.0477905 -0.4584
                CHANNELS 3 Zrotation Xrotation Yrotation
                JOINT rPinky2
                {
                  OFFSET -1.82734 -0.647385 -0.700984
                  CHANNELS 3 Zrotation Xrotation Yrotation
                  End Site
                  {
                    OFFSET -1.69225 -0.51767 -0.607171
                  }
                }
              }
            }
          }
        }
      }
      JOINT lCollar
      {
        OFFSET 2.68224 19.2634 -4.8768
        CHANNELS 3 Zrotation Xrotation Yrotation
        JOINT lShldr
        {
          OFFSET 8.77824 -1.95073 1.46304
          CHANNELS 3 Zrotation Xrotation Yrotation
          JOINT lForeArm
          {
            OFFSET 28.1742 -1.7115 0.48768
            CHANNELS 3 Zrotation Xrotation Yrotation
            JOINT lHand
            {
              OFFSET 22.5879 0.773209 7.07136
              CHANNELS 3 Zrotation Xrotation Yrotation
              JOINT lThumb1
              {
                OFFSET 1.2192 -0.487915 3.41376
                CHANNELS 3 Zrotation Xrotation Yrotation
                JOINT lThumb2
                {
                  OFFSET 3.37035 -0.52449 3.41376
                  CHANNELS 3 Zrotation Xrotation Yrotation
                  End Site
                  {
                    OFFSET 1.78271 -1.18214 1.43049
                  }
                }
              }
              JOINT lIndex1
              {
                OFFSET 7.75947 0.938293 5.60832
                CHANNELS 3 Zrotation Xrotation Yrotation
                JOINT lIndex2
                {
                  OFFSET 2.54057 -0.884171 1.56538
                  CHANNELS 3 Zrotation Xrotation Yrotation
                  End Site
                  {
                    OFFSET 1.62519 -0.234802 1.16502
                  }
                }
              }
              JOINT lMid1
              {
                OFFSET 8.24714 1.18213 3.41376
                CHANNELS 3 Zrotation Xrotation Yrotation
                JOINT lMid2
                {
                  OFFSET 3.10165 -0.590103 1.0647
                  CHANNELS 3 Zrotation Xrotation Yrotation
                  End Site
                  {
                    OFFSET 2.48547 -0.328903 0.83742
                  }
                }
              }
              JOINT lRing1
              {
                OFFSET 8.82822 0.546677 1.51678
                CHANNELS 3 Zrotation Xrotation Yrotation
                JOINT lRing2
                {
                  OFFSET 2.60934 -0.819778 -0.0198488
                  CHANNELS 3 Zrotation Xrotation Yrotation
                  End Site
                  {
                    OFFSET 2.33842 -0.294052 0.168128
                  }
                }
              }
              JOINT lPinky1
              {
                OFFSET 8.27202 -0.0477905 -0.4584
                CHANNELS 3 Zrotation Xrotation Yrotation
                JOINT lPinky2
                {
                  OFFSET 1.82734 -0.647385 -0.700984
                  CHANNELS 3 Zrotation Xrotation Yrotation
                  End Site
                  {
                    OFFSET 1.69225 -0.51767 -0.607171
                  }
                }
              }
            }
          }
        }
      }
    }
  }
  JOINT rButtock
  {
    OFFSET -8.77824 4.35084 1.2192
    CHANNELS 3 Zrotation Xrotation Yrotation
    JOINT rThigh
    {
      OFFSET 0 -1.70687 -2.19456
      CHANNELS 3 Zrotation Xrotation Yrotation
      JOINT rShin
      {
        OFFSET 0 -36.8199 0.73152
        CHANNELS 3 Zrotation Xrotation Yrotation
        JOINT rFoot
        {
          OFFSET 0.73152 -45.1104 -5.12064
          CHANNELS 3 Zrotation Xrotation Yrotation
          End Site
          {
            OFFSET -1.1221 -3.69964 12.103
          }
        }
      }
    }
  }
  JOINT lButtock
  {
    OFFSET 8.77824 4.35084 1.2192
    CHANNELS 3 Zrotation Xrotation Yrotation
    JOINT lThigh
    {
      OFFSET 0 -1.70687 -2.19456
      CHANNELS 3 Zrotation Xrotation Yrotation
      JOINT lShin
      {
        OFFSET 0 -36.8199 0.73152
        CHANNELS 3 Zrotation Xrotation Yrotation
        JOINT lFoot
        {
          OFFSET -0.73152 -45.1104 -5.12064
          CHANNELS 3 Zrotation Xrotation Yrotation
          End Site
          {
            OFFSET 1.1221 -3.69964 12.103
          }
        }
      }
    }
  }
}
MOTION
Frames:	4
Frame Time:	0.00833333
37.1456 53.9849 -66.7783 10.911094 10.014115 9.092543 -10.3386 7.162319 -124.350892 3.573552 5.535691 128.299877 6.825507 26.391705 112.627848 -31.369272 26.700171 -147.189761 -1.208598 -0.025565 2.42345 -0.422324 0.001088 -0.295217 -155.721187 -4.788219 162.547339 -77.085579 -48.321824 -102.012009 -13.811527 2.607921 -47.570049 113.376247 -63.047776 101.272693 -171.719589 -9.461166 89.419666 -31.174994 -31.78926 4.422674 -19.384812 23.787034 14.099215 -60.945692 49.114385 45.696159 19.394428 -58.363491 -3.609239 -168.229326 -22.216792 141.572911 0.971821 -1.788382 0.445687 -157.09667 -26.765648 178.667083 -73.420186 -52.755978 -74.903231 -22.233317 -42.893571 -21.60274 -2.616674 -18.180471 3.935859 95.676068 -12.495023 124.301043 167.728337 -8.004252 74.743195 13.335161 -51.806992 13.496963 89.305569 38.938584 -50.213126 -112.064556 -51.841509 -48.083255 -2.183297 -3.893582 1.359574 174.849795 -35.295685 -106.409293 -24.23144 -61.281542 -0.96552 165.341573 -6.111523 -142.455358 146.454946 -0.749738 179.077745 76.733128 -78.228472 94.266189 27.115837 -36.334665 27.785065 94.196766 -55.600832 96.142343 -179.361511 75.41676 -0.0 145.931137 -3.195244 -2.926753 -6.036107 74.806455 103.324939 -24.147206 53.370657 -54.83068 0.353195 -0.559626 0.522149 11.039437 4.289819 -69.022609 -41.434811 4.316894 -20.609246 -138.50362 56.808085 -141.425087
37.1573 54.2076 -66.72240000000001 10.988142 10.255454 8.467725 -12.750961 10.81218 -0.0 4.774026 -9.526249 5.174957 5.291302 29.71841 132.431979 -24.263052 36.045952 -167.088547 -1.091592 -0.009993 1.049008 -0.354615 0.003808 -1.230347 -0.091647 -0.38721 -0.585648 93.25154 -37.425081 92.937143 18.077817 5.617986 16.681641 -26.884737 68.71882 16.33635 -176.902525 -14.1044 89.503965 -92.218298 13.009379 34.028726 -138.578068 4.529742 114.218874 46.846545 -53.993288 4.351914 -0.084599 1.885315 -1.371552 32.317606 -59.306826 10.900918 0.831139 -2.443027 -0.239587 7.959362 7.081753 -1.324117 14.572712 43.953316 12.314114 -130.177422 -26.747357 -123.010446 78.335984 68.503707 -81.881964 -73.471217 10.403724 -46.652343 9.709813 -29.034892 -99.137679 13.302653 -55.370489 14.669243 0.463058 0.447473 0.238198 151.13992 -65.797773 -121.009686 33.509298 34.683902 -25.326791 0.614762 12.477143 -3.251393 144.665834 29.497688 -132.918484 161.494536 -5.280759 -143.149918 145.757881 0.129592 179.296589 158.327862 63.780041 -171.444916 -12.097938 30.901825 -4.23399 143.567572 -13.733813 137.934466 -173.88205 75.117259 -4.13373 144.626942 -5.346537 180.0 45.902039 -71.818524 137.60625 28.700126 78.571086 61.179944 0.625658 -0.072186 0.624834 10.477375 4.433667 -67.314051 -40.08373 5.38345 -13.666064 -39.383426 72.699301 136.252661
37.0891 54.34290000000001 -66.6371 11.06436 10.320769 8.065204 -13.455935 10.665884 1.974812 4.657249 -9.523266 3.473224 4.50619 18.573062 63.890091 -31.475793 -2.274969 -105.699677 -0.978037 0.002863 -0.335395 -0.316488 0.005425 -1.964078 -80.244988 68.8743 83.129937 149.18272 -7.425715 -179.030069 93.226668 -52.353632 62.66956 178.441833 28.67521 151.904315 -94.078022 38.077237 53.31226 76.498989 -46.766355 34.042536 -151.695233 -17.313187 120.53645 -173.363589 -34.693592 115.685156 -160.424481 -6.334716 144.631126 -169.211503 -26.153715 146.105868 0.895851 -1.721215 -0.599101 -157.374367 -0.758748 173.034035 -143.485243 15.477814 -143.780649 -141.686643 9.481747 -141.919417 -0.520856 0.339259 -0.062336 -92.74841 28.309973 41.336384 -173.724262 18.531187 -42.999875 137.750178 37.080914 -121.303385 -6.377404 -6.220768 0.599726 127.049613 -20.194383 -117.414702 172.480623 -52.561327 -120.678887 -32.180407 -39.641165 9.888645 -1.875689 -3.69031 0.875984 157.677727 16.146787 -140.79591 0.122229 -1.350776 0.234475 61.565993 -86.278998 84.963849 27.416416 -36.029171 28.287491 0.123171 -16.819324 1.733038 -179.26171 75.126957 -0.0 147.169773 -2.901274 -88.803747 -81.382116 -4.14454 -89.905118 71.758156 26.195324 -166.40008 -0.038563 0.243026 0.049745 9.739043 5.416594 0.0 1.746116 34.352173 26.993097 70.54575 -8.865717 -5.459721
36.9777 54.459900000000005 -66.5369 11.114893 10.567797 7.84181 -14.069549 10.435652 2.011324 4.696653 -9.450043 3.661183 0.217477 15.555802 35.124786 -21.559185 -17.110081 -79.034307 -0.826868 0.011983 -1.660504 -0.281642 0.006356 -2.585522 2.166672 -18.823983 -4.332564 -110.818794 21.723534 112.24917 -174.070632 -19.387213 -162.060677 -6.945186 42.417469 3.84604 -169.31575 -6.101843 90.116457 -136.498725 9.611641 65.823379 -167.36948 -43.958199 121.502882 -2.74516 24.948873 -1.244259 -6.421285 17.310981 3.225963 31.257009 -59.686596 8.906758 -144.084931 0.485566 -178.787478 -54.340674 87.26077 69.546329 -18.589945 -34.751421 -19.755537 0.216331 2.368215 2.8428 83.484802 68.170823 -87.214397 91.325605 -3.925968 -130.53433 179.575318 5.205197 77.782965 14.565851 -37.635198 9.163656 -174.075053 -22.881975 -87.794402 92.31125 17.886623 -33.195845 151.734104 -18.43026 -121.92188 -42.058233 -56.403225 1.009596 175.027758 -50.402082 -144.550456 -19.816534 -41.631289 -2.31826 144.836763 3.589213 -179.337956 -9.237697 -0.020545 8.345199 160.46103 54.522078 144.523599 15.328697 -23.268494 17.298167 2.239299 0.495153 1.124116 -73.625829 -52.934697 -70.591831 -8.874833 69.976502 82.290216 31.804258 -57.41075 -57.989711 -179.880566 75.420852 -0.123407 -131.584425 77.181583 -47.505138 -10.804582 42.93598 -130.386462 160.114186 5.128215 177.831634
